<svg width="49" height="50" viewBox="0 0 49 50" fill="none" xmlns="http://www.w3.org/2000/svg">
<path d="M9.19468 31.25C7.37841 31.25 5.60293 31.7998 4.09276 32.83C2.5826 33.8601 1.40556 35.3243 0.710509 37.0373C0.0154544 38.7504 -0.166403 40.6354 0.187932 42.454C0.542268 44.2725 1.41688 45.943 2.70118 47.2541C3.98547 48.5652 5.62176 49.4581 7.40312 49.8199C9.18449 50.1816 11.0309 49.9959 12.7089 49.2864C14.3869 48.5768 15.8212 47.3752 16.8302 45.8335C17.8393 44.2918 18.3779 42.4792 18.3779 40.625C18.3779 38.1386 17.4104 35.754 15.6882 33.9959C13.966 32.2377 11.6302 31.25 9.19468 31.25ZM9.19468 45.8333C8.18564 45.8333 7.19926 45.5279 6.36028 44.9556C5.5213 44.3833 4.86739 43.5698 4.48125 42.6181C4.09511 41.6664 3.99408 40.6192 4.19093 39.6089C4.38778 38.5986 4.87368 37.6705 5.58718 36.9422C6.30067 36.2138 7.20972 35.7177 8.19937 35.5167C9.18902 35.3158 10.2148 35.4189 11.147 35.8131C12.0793 36.2073 12.8761 36.8749 13.4366 37.7314C13.9972 38.5879 14.2965 39.5949 14.2965 40.625C14.2897 42.0042 13.7501 43.325 12.7948 44.3003C11.8394 45.2756 10.5457 45.8265 9.19468 45.8333ZM0.598184 19.349L4.27146 15.625L0.598184 11.901C0.272766 11.4963 0.106464 10.9824 0.131626 10.4594C0.156789 9.93633 0.371615 9.44155 0.73432 9.07127C1.09703 8.70099 1.58168 8.48168 2.094 8.45599C2.60633 8.4303 3.10969 8.60008 3.5062 8.93229L7.15397 12.6823L10.8017 8.93229C11.1982 8.60008 11.7016 8.4303 12.2139 8.45599C12.7263 8.48168 13.2109 8.70099 13.5736 9.07127C13.9363 9.44155 14.1511 9.93633 14.1763 10.4594C14.2015 10.9824 14.0352 11.4963 13.7097 11.901L10.0365 15.625L13.7097 19.349C14.093 19.7439 14.3079 20.2774 14.3079 20.8333C14.3079 21.3893 14.093 21.9227 13.7097 22.3177C13.3197 22.7027 12.7983 22.918 12.2557 22.918C11.7132 22.918 11.1918 22.7027 10.8017 22.3177L7.15397 18.5677L3.5062 22.3177C3.11613 22.7027 2.59478 22.918 2.05219 22.918C1.5096 22.918 0.988245 22.7027 0.598184 22.3177C0.214976 21.9227 0 21.3893 0 20.8333C0 20.2774 0.214976 19.7439 0.598184 19.349ZM48.4018 44.349C48.785 44.7439 49 45.2774 49 45.8333C49 46.3893 48.785 46.9227 48.4018 47.3177C48.0118 47.7027 47.4904 47.918 46.9478 47.918C46.4052 47.918 45.8839 47.7027 45.4938 47.3177L41.846 43.5677L38.1983 47.3177C37.8082 47.7027 37.2868 47.918 36.7443 47.918C36.2017 47.918 35.6803 47.7027 35.2903 47.3177C34.9071 46.9227 34.6921 46.3893 34.6921 45.8333C34.6921 45.2774 34.9071 44.7439 35.2903 44.349L38.9635 40.625L35.2903 36.901C34.9648 36.4963 34.7985 35.9824 34.8237 35.4594C34.8489 34.9363 35.0637 34.4416 35.4264 34.0713C35.7891 33.701 36.2738 33.4817 36.7861 33.456C37.2984 33.4303 37.8018 33.6001 38.1983 33.9323L41.846 37.6823L45.4938 33.9323C45.8903 33.6001 46.3937 33.4303 46.906 33.456C47.4183 33.4817 47.903 33.701 48.2657 34.0713C48.6284 34.4416 48.8432 34.9363 48.8684 35.4594C48.8935 35.9824 48.7272 36.4963 48.4018 36.901L44.7285 40.625L48.4018 44.349ZM36.8718 21.0417C35.2903 26.875 30.4181 31.901 24.9847 33.2812L24.5 33.3333C24.0418 33.335 23.5964 33.1792 23.2355 32.8911C22.8746 32.6029 22.6191 32.1992 22.5103 31.7448C22.3868 31.2064 22.4753 30.64 22.7568 30.1675C23.0382 29.6951 23.4902 29.3544 24.0153 29.2187C27.9947 28.2031 31.7445 24.2969 32.9434 19.9479C33.7342 16.9531 33.7597 12.3958 29.1681 7.73438L28.5814 7.10937V12.5C28.5814 13.0525 28.3664 13.5824 27.9837 13.9731C27.601 14.3638 27.0819 14.5833 26.5407 14.5833C25.9995 14.5833 25.4804 14.3638 25.0977 13.9731C24.715 13.5824 24.5 13.0525 24.5 12.5V2.08333C24.5 1.5308 24.715 1.0009 25.0977 0.610195C25.4804 0.219494 25.9995 0 26.5407 0H36.7443C37.2855 0 37.8046 0.219494 38.1873 0.610195C38.57 1.0009 38.785 1.5308 38.785 2.08333C38.785 2.63587 38.57 3.16577 38.1873 3.55647C37.8046 3.94717 37.2855 4.16667 36.7443 4.16667H31.4639L32.0761 4.76562C36.7188 9.53125 38.4278 15.3125 36.8718 21.0417Z" fill="#C4C4C4"/>
</svg>
