<svg width="51" height="51" viewBox="0 0 51 51" fill="none" xmlns="http://www.w3.org/2000/svg">
<g clip-path="url(#clip0_1275_171)">
<path d="M0.488281 47.8575H2.92015V38.0822C2.92015 36.473 4.22408 35.168 5.832 35.168H11.709C13.3169 35.168 14.6209 36.473 14.6209 38.0822V47.8201H19.6179V30.0922C19.6179 28.2001 21.1512 26.663 23.0444 26.663H27.9082C29.7987 26.663 31.3346 28.1975 31.3346 30.0922V47.8175H36.313V22.1183C36.313 19.9353 38.0809 18.166 40.2622 18.166H44.094C46.2752 18.166 48.0431 19.9353 48.0431 22.1183V47.8441H50.4883V50.7877H0.488281V47.8548V47.8575ZM28.3855 47.8335V30.8421C28.3855 30.1616 27.8335 29.6065 27.1509 29.6065H23.8124C23.1324 29.6065 22.5778 30.1589 22.5778 30.8421V47.8335H28.3828H28.3855ZM5.89333 39.3685V47.8335H11.6903V39.3685C11.6903 38.664 11.1197 38.0929 10.4158 38.0929H7.16526C6.4613 38.0929 5.89066 38.664 5.89066 39.3685H5.89333Z" fill="url(#paint0_linear_1275_171)"/>
<path d="M41.699 3.68091H40.7897C39.9924 3.68091 39.3444 3.03243 39.3444 2.2345C39.3444 1.43657 39.9924 0.788086 40.7897 0.788086H46.48C47.3307 0.788086 48.0213 1.47927 48.0213 2.33057V8.00681C48.0213 8.80741 47.3733 9.45589 46.5734 9.45589C45.7734 9.45589 45.1255 8.80741 45.1255 8.00681V5.78648C44.9148 5.98397 44.7735 6.10406 44.6455 6.23482C42.027 8.89014 39.3711 11.5028 36.3686 13.7391C29.3636 18.9563 21.5747 22.3642 12.9778 23.9254C9.84733 24.4938 6.69283 24.7713 3.51433 24.7927C3.20768 24.7927 2.95703 24.5472 2.95703 24.2376V22.9273C2.95703 22.3642 3.40234 21.8972 3.96764 21.8812C19.0762 21.4569 31.7128 15.6098 42.1016 4.62562C42.4376 4.27069 42.1869 3.68358 41.699 3.68358V3.68091Z" fill="url(#paint1_linear_1275_171)"/>
</g>
<defs>
<linearGradient id="paint0_linear_1275_171" x1="25.4883" y1="18.166" x2="25.4883" y2="50.7877" gradientUnits="userSpaceOnUse">
<stop stop-color="#45C4F9"/>
<stop offset="1" stop-color="#FF0BE5"/>
</linearGradient>
<linearGradient id="paint1_linear_1275_171" x1="25.4892" y1="0.788086" x2="25.4892" y2="24.7927" gradientUnits="userSpaceOnUse">
<stop stop-color="#45C4F9"/>
<stop offset="1" stop-color="#FF0BE5"/>
</linearGradient>
<clipPath id="clip0_1275_171">
<rect width="51" height="51" fill="white"/>
</clipPath>
</defs>
</svg>
