<svg width="51" height="51" viewBox="0 0 51 51" fill="none" xmlns="http://www.w3.org/2000/svg">
<path d="M0.488281 47.8579H2.92015V38.0826C2.92015 36.4734 4.22408 35.1684 5.832 35.1684H11.709C13.3169 35.1684 14.6209 36.4734 14.6209 38.0826V47.8205H19.6179V30.0926C19.6179 28.2005 21.1512 26.6634 23.0444 26.6634H27.9082C29.7987 26.6634 31.3346 28.1979 31.3346 30.0926V47.8179H36.313V22.1187C36.313 19.9357 38.0809 18.1664 40.2622 18.1664H44.094C46.2752 18.1664 48.0431 19.9357 48.0431 22.1187V47.8445H50.4883V50.7881H0.488281V47.8552V47.8579ZM28.3855 47.8339V30.8425C28.3855 30.162 27.8335 29.6069 27.1509 29.6069H23.8124C23.1324 29.6069 22.5778 30.1593 22.5778 30.8425V47.8339H28.3828H28.3855ZM5.89333 39.3689V47.8339H11.6903V39.3689C11.6903 38.6644 11.1197 38.0933 10.4158 38.0933H7.16526C6.4613 38.0933 5.89066 38.6644 5.89066 39.3689H5.89333Z" fill="#C4C4C4"/>
<path d="M41.699 3.68091H40.7897C39.9924 3.68091 39.3444 3.03243 39.3444 2.2345C39.3444 1.43657 39.9924 0.788086 40.7897 0.788086H46.48C47.3307 0.788086 48.0213 1.47927 48.0213 2.33057V8.00681C48.0213 8.80741 47.3733 9.45589 46.5734 9.45589C45.7734 9.45589 45.1255 8.80741 45.1255 8.00681V5.78648C44.9148 5.98397 44.7735 6.10406 44.6455 6.23482C42.027 8.89014 39.3711 11.5028 36.3686 13.7391C29.3636 18.9563 21.5747 22.3642 12.9778 23.9254C9.84733 24.4938 6.69283 24.7713 3.51433 24.7927C3.20768 24.7927 2.95703 24.5472 2.95703 24.2376V22.9273C2.95703 22.3642 3.40234 21.8972 3.96764 21.8812C19.0762 21.4569 31.7128 15.6098 42.1016 4.62562C42.4376 4.27069 42.1869 3.68358 41.699 3.68358V3.68091Z" fill="#C4C4C4"/>
</svg>
