<svg width="47" height="47" viewBox="0 0 47 47" fill="none" xmlns="http://www.w3.org/2000/svg">
<path d="M10.2812 44.0625C12.2289 44.0625 14.0968 43.2888 15.4741 41.9116C16.8513 40.5343 17.625 38.6664 17.625 36.7188C17.625 34.7711 16.8513 32.9032 15.4741 31.5259C14.0968 30.1487 12.2289 29.375 10.2812 29.375C8.33357 29.375 6.46565 30.1487 5.08843 31.5259C3.71121 32.9032 2.9375 34.7711 2.9375 36.7188C2.9375 38.6664 3.71121 40.5343 5.08843 41.9116C6.46565 43.2888 8.33357 44.0625 10.2812 44.0625ZM36.7188 17.625C38.6664 17.625 40.5343 16.8513 41.9116 15.4741C43.2888 14.0968 44.0625 12.2289 44.0625 10.2812C44.0625 8.33357 43.2888 6.46565 41.9116 5.08843C40.5343 3.71121 38.6664 2.9375 36.7188 2.9375C34.7711 2.9375 32.9032 3.71121 31.5259 5.08843C30.1487 6.46565 29.375 8.33357 29.375 10.2812C29.375 12.2289 30.1487 14.0968 31.5259 15.4741C32.9032 16.8513 34.7711 17.625 36.7188 17.625ZM36.7188 44.0625C34.7711 44.0625 32.9032 43.2888 31.5259 41.9116C30.1487 40.5343 29.375 38.6664 29.375 36.7188C29.375 34.7711 30.1487 32.9032 31.5259 31.5259C32.9032 30.1487 34.7711 29.375 36.7188 29.375C38.6664 29.375 40.5343 30.1487 41.9116 31.5259C43.2888 32.9032 44.0625 34.7711 44.0625 36.7188C44.0625 38.6664 43.2888 40.5343 41.9116 41.9116C40.5343 43.2888 38.6664 44.0625 36.7188 44.0625ZM47 10.2812C47 13.008 45.9168 15.6231 43.9887 17.5512C42.0606 19.4793 39.4455 20.5625 36.7188 20.5625C33.992 20.5625 31.3769 19.4793 29.4488 17.5512C27.5207 15.6231 26.4375 13.008 26.4375 10.2812C26.4375 7.55449 27.5207 4.93942 29.4488 3.01131C31.3769 1.0832 33.992 0 36.7188 0C39.4455 0 42.0606 1.0832 43.9887 3.01131C45.9168 4.93942 47 7.55449 47 10.2812ZM20.5625 36.7188C20.5625 39.4455 19.4793 42.0606 17.5512 43.9887C15.6231 45.9168 13.008 47 10.2812 47C7.55449 47 4.93942 45.9168 3.01131 43.9887C1.0832 42.0606 0 39.4455 0 36.7188C0 33.992 1.0832 31.3769 3.01131 29.4488C4.93942 27.5207 7.55449 26.4375 10.2812 26.4375C13.008 26.4375 15.6231 27.5207 17.5512 29.4488C19.4793 31.3769 20.5625 33.992 20.5625 36.7188ZM36.7188 47C39.4455 47 42.0606 45.9168 43.9887 43.9887C45.9168 42.0606 47 39.4455 47 36.7188C47 33.992 45.9168 31.3769 43.9887 29.4488C42.0606 27.5207 39.4455 26.4375 36.7188 26.4375C33.992 26.4375 31.3769 27.5207 29.4488 29.4488C27.5207 31.3769 26.4375 33.992 26.4375 36.7188C26.4375 39.4455 27.5207 42.0606 29.4488 43.9887C31.3769 45.9168 33.992 47 36.7188 47ZM10.2812 14.6875C9.70261 14.6875 9.12964 14.5735 8.59505 14.3521C8.06046 14.1307 7.57472 13.8061 7.16556 13.3969C6.7564 12.9878 6.43184 12.502 6.21041 11.9674C5.98897 11.4329 5.875 10.8599 5.875 10.2812C5.875 9.70261 5.98897 9.12964 6.21041 8.59505C6.43184 8.06046 6.7564 7.57472 7.16556 7.16556C7.57472 6.7564 8.06046 6.43184 8.59505 6.21041C9.12964 5.98897 9.70261 5.875 10.2812 5.875C11.4499 5.875 12.5706 6.33923 13.3969 7.16556C14.2233 7.99189 14.6875 9.11264 14.6875 10.2812C14.6875 11.4499 14.2233 12.5706 13.3969 13.3969C12.5706 14.2233 11.4499 14.6875 10.2812 14.6875ZM10.2812 20.5625C13.008 20.5625 15.6231 19.4793 17.5512 17.5512C19.4793 15.6231 20.5625 13.008 20.5625 10.2812C20.5625 7.55449 19.4793 4.93942 17.5512 3.01131C15.6231 1.0832 13.008 0 10.2812 0C7.55449 0 4.93942 1.0832 3.01131 3.01131C1.0832 4.93942 0 7.55449 0 10.2812C0 13.008 1.0832 15.6231 3.01131 17.5512C4.93942 19.4793 7.55449 20.5625 10.2812 20.5625Z" fill="#C4C4C4"/>
</svg>
