<svg width="22" height="16" viewBox="0 0 22 16" fill="none" xmlns="http://www.w3.org/2000/svg">
<path d="M5.26613 3.59821C4.09862 3.59821 2.97892 4.06201 2.15337 4.88757C1.32781 5.71312 0.864014 6.83282 0.864014 8.00033C0.864014 9.16785 1.32781 10.2875 2.15337 11.1131C2.97892 11.9387 4.09862 12.4025 5.26613 12.4025C5.52067 12.4018 5.77469 12.3795 6.02544 12.3358C6.4414 13.3801 7.15107 14.2816 8.06861 14.931C8.98614 15.5805 10.0722 15.9502 11.1954 15.9953C12.3187 16.0404 13.4309 15.7591 14.3976 15.1854C15.3643 14.6117 16.144 13.7701 16.6425 12.7625C16.1592 12.6674 15.6934 12.4989 15.2611 12.2628C14.8261 13.07 14.1473 13.7193 13.3217 14.1181C12.496 14.517 11.5655 14.645 10.6627 14.484C9.76002 14.323 8.93115 13.8812 8.29426 13.2215C7.65737 12.5618 7.24495 11.7179 7.11578 10.8101C7.10064 10.7381 7.06118 10.6736 7.00403 10.6273C6.94689 10.581 6.87555 10.5558 6.80201 10.5559C6.76416 10.5562 6.72667 10.5633 6.69141 10.5771C6.66553 10.5912 6.63964 10.6062 6.61297 10.6195C6.31485 10.7743 5.99211 10.8763 5.65912 10.9207C5.24112 10.9802 4.81522 10.9492 4.41023 10.8298C4.00525 10.7104 3.63063 10.5055 3.31174 10.2287C2.99285 9.95203 2.73712 9.61004 2.56186 9.22592C2.3866 8.8418 2.2959 8.42451 2.2959 8.0023C2.2959 7.58008 2.3866 7.16279 2.56186 6.77867C2.73712 6.39455 2.99285 6.05256 3.31174 5.77584C3.63063 5.49913 4.00525 5.29414 4.41023 5.17476C4.81522 5.05538 5.24112 5.02439 5.65912 5.08389C6.32708 5.17479 6.94395 5.49111 7.40758 5.98047C7.64387 6.23124 7.83447 6.5214 7.97079 6.83784L7.98726 6.87784C8.01358 6.93069 8.05407 6.97518 8.10422 7.00635C8.15436 7.03751 8.21218 7.05413 8.27122 7.05433C8.3552 7.05388 8.43569 7.02067 8.49556 6.96177C9.16381 6.34858 10.0072 5.95988 10.9075 5.85016C11.8078 5.74043 12.7198 5.91519 13.5158 6.34993C13.9755 6.60151 14.3865 6.93332 14.7293 7.32966C14.9098 7.53837 15.0705 7.76342 15.2093 8.0019C15.5085 8.51774 15.6981 9.08972 15.7663 9.68211C15.7741 9.68996 15.7804 9.69859 15.7882 9.70643C16.1731 10.1154 16.6852 10.3817 17.241 10.4618C17.2457 10.37 17.2504 10.2767 17.2504 10.1834C17.2507 8.75157 16.7225 7.37005 15.7671 6.30365C15.6667 6.19148 15.5615 6.08402 15.4533 5.98047C14.5532 5.11751 13.3994 4.56684 12.1624 4.40977C10.9254 4.25271 9.67063 4.49757 8.58341 5.10821C7.92211 4.34711 7.01875 3.83712 6.02544 3.6641C5.77467 3.62065 5.52065 3.59861 5.26613 3.59821Z" fill="url(#paint0_linear_927_402)"/>
<path d="M11.4299 0C10.3456 7.70468e-05 9.28302 0.303244 8.36197 0.875276C7.44093 1.44731 6.69813 2.26543 6.21744 3.23727C6.70104 3.33241 7.16717 3.50119 7.59957 3.73772C7.99184 3.01297 8.58156 2.41429 9.30031 2.01113C10.0191 1.60797 10.8374 1.41687 11.6604 1.45998C12.4833 1.50309 13.2772 1.77865 13.9499 2.2547C14.6226 2.73075 15.1466 3.38777 15.461 4.14954C15.5985 4.48303 15.6937 4.83247 15.7441 5.18967C15.7532 5.23483 15.772 5.27746 15.7992 5.31465C15.8264 5.35183 15.8614 5.38267 15.9016 5.40504C15.9419 5.42741 15.9865 5.44078 16.0325 5.44423C16.0784 5.44767 16.1246 5.44111 16.1677 5.42499C16.1936 5.41009 16.2195 5.39597 16.2461 5.38185C16.5443 5.22764 16.8666 5.12576 17.1992 5.08064C17.6177 5.02028 18.0442 5.05062 18.4499 5.1696C18.8556 5.28858 19.231 5.49341 19.5506 5.77021C19.8702 6.047 20.1265 6.38929 20.3021 6.77385C20.4778 7.15841 20.5687 7.57625 20.5687 7.99904C20.5687 8.42183 20.4778 8.83968 20.3021 9.22424C20.1265 9.6088 19.8702 9.95109 19.5506 10.2279C19.231 10.5047 18.8556 10.7095 18.4499 10.8285C18.0442 10.9475 17.6177 10.9778 17.1992 10.9174C16.6843 10.8491 16.1969 10.6446 15.7873 10.3252C15.6668 10.2322 15.554 10.1296 15.45 10.0185C15.2139 9.76807 15.0235 9.47815 14.8875 9.16193C14.8813 9.1486 14.8758 9.13448 14.8703 9.12193C14.8485 9.07623 14.8161 9.03646 14.7756 9.00603C14.7352 8.97559 14.688 8.95539 14.6381 8.94715C14.5881 8.9389 14.537 8.94286 14.4889 8.95868C14.4408 8.9745 14.3973 9.00171 14.362 9.038C13.769 9.57767 13.0387 9.94341 12.2514 10.095C11.4641 10.2466 10.6502 10.1782 9.89921 9.89725C9.14824 9.61634 8.48926 9.13381 7.99471 8.50271C7.50016 7.8716 7.18919 7.11636 7.09598 6.32001C7.08814 6.31138 7.08186 6.30275 7.07402 6.29491C6.98551 6.2013 6.89006 6.11451 6.78849 6.03527C6.44905 5.77151 6.04679 5.60066 5.62129 5.53952C5.61658 5.63208 5.61187 5.72464 5.61187 5.81799C5.61214 7.24892 6.13966 8.62958 7.09363 9.69612C7.19403 9.80829 7.29914 9.91575 7.40739 10.0193C8.30755 10.8819 9.46107 11.4324 10.6978 11.5896C11.9346 11.7467 13.1892 11.5023 14.2765 10.8923C14.7817 11.4726 15.4302 11.9103 16.1572 12.1619C16.8843 12.4136 17.6646 12.4702 18.4205 12.3264C19.1763 12.1825 19.8812 11.8431 20.465 11.3419C21.0487 10.8408 21.491 10.1954 21.7477 9.47011C22.0044 8.74481 22.0666 7.96491 21.928 7.20811C21.7894 6.45131 21.4549 5.74403 20.9579 5.15675C20.4609 4.56947 19.8186 4.12268 19.0951 3.8609C18.3717 3.59913 17.5922 3.53151 16.8345 3.66477C16.4036 2.58332 15.6583 1.65598 14.6948 1.00265C13.7313 0.349325 12.594 5.42602e-05 11.4299 0Z" fill="url(#paint1_linear_927_402)"/>
<defs>
<linearGradient id="paint0_linear_927_402" x1="-6.47338" y1="0.596068" x2="25.6836" y2="12.705" gradientUnits="userSpaceOnUse">
<stop stop-color="#3861AD"/>
<stop offset="1" stop-color="#4A76BA"/>
</linearGradient>
<linearGradient id="paint1_linear_927_402" x1="24.0941" y1="11.2453" x2="10.4501" y2="5.39754" gradientUnits="userSpaceOnUse">
<stop stop-color="#198952"/>
<stop offset="1" stop-color="#43B576"/>
</linearGradient>
</defs>
</svg>
