<svg width="503" height="370" viewBox="0 0 503 370" fill="none" xmlns="http://www.w3.org/2000/svg">
<g opacity="0.4" filter="url(#filter0_f_0_4624)">
<path d="M54.1803 238.586C68.0984 149.93 6.04255 65.395 101.301 67.4364C205.65 69.6727 234.052 11.1703 320.853 82.627C396.042 144.524 360.328 243.597 274.29 278.085C223.785 298.33 145.883 317.434 137.487 319.469C136.965 319.596 136.553 319.708 136.035 319.851C127.112 322.308 37.5584 344.464 54.1803 238.586Z" fill="url(#paint0_linear_0_4624)"/>
</g>
<g opacity="0.4" filter="url(#filter1_f_0_4624)">
<path d="M305.039 282.167C355.878 215.829 268.739 134.489 335.677 136.259C409.003 138.199 457.706 33.9068 472.095 129.198C485.935 220.859 450.474 80.485 472.095 214.865C496.502 366.564 356.011 328.637 323.748 318.051C319.523 316.665 315.01 316.934 310.884 318.592C296.591 324.334 266.136 332.928 305.039 282.167Z" fill="url(#paint1_linear_0_4624)" fill-opacity="0.8"/>
</g>
<defs>
<filter id="filter0_f_0_4624" x="0.488556" y="0.488556" width="407.873" height="369.443" filterUnits="userSpaceOnUse" color-interpolation-filters="sRGB">
<feFlood flood-opacity="0" result="BackgroundImageFix"/>
<feBlend mode="normal" in="SourceGraphic" in2="BackgroundImageFix" result="shape"/>
<feGaussianBlur stdDeviation="23.2557" result="effect1_foregroundBlur_0_4624"/>
</filter>
<filter id="filter1_f_0_4624" x="258.785" y="61.7854" width="243.831" height="295.487" filterUnits="userSpaceOnUse" color-interpolation-filters="sRGB">
<feFlood flood-opacity="0" result="BackgroundImageFix"/>
<feBlend mode="normal" in="SourceGraphic" in2="BackgroundImageFix" result="shape"/>
<feGaussianBlur stdDeviation="13.6073" result="effect1_foregroundBlur_0_4624"/>
</filter>
<linearGradient id="paint0_linear_0_4624" x1="16.5307" y1="63.2145" x2="274.483" y2="-46.6022" gradientUnits="userSpaceOnUse">
<stop stop-color="#45A3F9"/>
<stop offset="0.464464" stop-color="#8920FE" stop-opacity="0.81"/>
<stop offset="0.814683" stop-color="#8920FE" stop-opacity="0.81"/>
</linearGradient>
<linearGradient id="paint1_linear_0_4624" x1="410.875" y1="129.799" x2="531.775" y2="171.843" gradientUnits="userSpaceOnUse">
<stop offset="0.158193" stop-color="#FF0BE5"/>
<stop offset="0.950913" stop-color="#FFC800"/>
</linearGradient>
</defs>
</svg>
